<svg viewBox="0 0 636.51 416.46" xmlns="http://www.w3.org/2000/svg">
    <path d="m146.05 330.97c1.11-2.5 1.57-3.84 2.27-5.04 11.44-19.75 22.95-39.47 34.37-59.23 23.26-40.24 46.57-80.45 69.7-120.77 16.72-29.14 33.16-58.43 49.77-87.63 8.71-15.3 17.5-30.56 26.27-45.83 3.75-6.53 1.38-12.39-5.11-12.39-101.38-.02-202.75.01-304.12-.08-4.46 0-6.05 1.25-6.01 5.92.21 24.1.28 48.21-.02 72.31-.07 5.51 1.37 7.09 7 7.06 52.33-.22 104.67-.13 157-.11 2.25 0 4.49.19 7.21.31-.63 1.93-.79 3.04-1.32 3.93-16 27.36-32 54.72-48.07 82.05-8.63 14.68-17.47 29.25-26.02 43.98-6.73 11.59-13.04 23.41-19.74 35.02-10.31 17.88-20.83 35.64-31.2 53.49-8.74 15.04-17.36 30.15-26.1 45.18-10.3 17.71-20.91 35.24-30.78 53.18-1.78 3.24-1.14 8.19-.41 12.13.18.96 5.12 1.46 7.88 1.46 149.13.11 298.26.15 447.39.24 3.5 0 5.09-.7 3.05-4.37-1.48-2.66-2.65-5.49-4.17-8.12-12.6-21.81-25.31-43.56-37.85-65.41-2.84-4.95-6.06-7.48-12.44-7.46-83.44.26-166.88.17-250.32.17h-8.24zm86.8-51.35h8.61c68.62 0 137.24.06 205.86-.12 5.52-.01 8.86 1.9 11.44 6.51 4.15 7.41 8.72 14.58 12.91 21.96 9.08 16.03 17.92 32.2 27.08 48.19 9.56 16.68 19.97 32.9 28.82 49.94 3.94 7.59 8.14 11.43 16.66 9.92 1.77-.31 3.65-.06 5.48-.05 27.79.18 55.59.37 83.38.48 1.11 0 2.73-.51 3.2-1.31.48-.81.17-2.49-.39-3.43-2.33-3.88-5.05-7.53-7.34-11.44-13.05-22.31-26.12-44.61-38.98-67.04-13.5-23.53-26.73-47.21-40.13-70.8-13.97-24.58-27.92-49.16-42.03-73.66-9.45-16.42-19.31-32.6-28.73-49.04-11.87-20.72-23.39-41.64-35.21-62.39-9.41-16.53-19.02-32.95-28.58-49.4-4.55-7.82-9.04-15.68-13.82-23.36-2.39-3.83-4.41-3.66-6.55.07-14.73 25.54-29.33 51.15-44.23 76.59-3.66 6.25-4.08 11.52.72 17.42 3.14 3.86 5.2 8.61 7.71 12.98 13.45 23.33 26.93 46.65 40.32 70.02 2.54 4.43 4.69 9.09 7.44 14.46-3.51 0-5.69 0-7.86 0-36.96 0-73.93.13-110.89-.14-5.49-.04-8.04 2.1-10.45 6.6-6.3 11.79-13.04 23.34-19.74 34.91-7.86 13.57-15.85 27.06-24.68 42.1z" fill="#162947"/>
</svg>